<?xml version="1.0" encoding="UTF-8" standalone="no"?>
<!-- Created with Inkscape (http://www.inkscape.org/) -->

<svg
   sodipodi:docname="dust-lang-logo.svg"
   inkscape:version="1.1.1 (3bf5ae0d25, 2021-09-20)"
   id="svg5"
   version="1.1"
   viewBox="0 0 121.02205 144.06235"
   height="144.06235mm"
   width="121.02205mm"
   xmlns:inkscape="http://www.inkscape.org/namespaces/inkscape"
   xmlns:sodipodi="http://sodipodi.sourceforge.net/DTD/sodipodi-0.dtd"
   xmlns="http://www.w3.org/2000/svg"
   xmlns:svg="http://www.w3.org/2000/svg">
  <sodipodi:namedview
     id="namedview7"
     pagecolor="#ffffff"
     bordercolor="#999999"
     borderopacity="1"
     inkscape:pageshadow="0"
     inkscape:pageopacity="0"
     inkscape:pagecheckerboard="0"
     inkscape:document-units="mm"
     showgrid="false"
     inkscape:zoom="1"
     inkscape:cx="180.5"
     inkscape:cy="529"
     inkscape:window-width="3840"
     inkscape:window-height="2036"
     inkscape:window-x="-12"
     inkscape:window-y="-12"
     inkscape:window-maximized="1"
     inkscape:current-layer="layer1"
     fit-margin-left="0.1"
     fit-margin-top="0.1"
     fit-margin-right="0.1"
     fit-margin-bottom="0.1" />
  <defs
     id="defs2" />
  <g
     inkscape:label="Layer 1"
     inkscape:groupmode="layer"
     id="layer1"
     transform="translate(-10.981492,-8.3356599)">
    <path
       id="path846"
       style="fill:#000d05;fill-opacity:1;stroke:none;stroke-width:0.524529;stroke-linecap:square"
       inkscape:transform-center-x="0.040342668"
       inkscape:transform-center-y="-0.040334827"
       d="m 72.637426,8.4356599 -4.120679,5.4647831 -4.693253,-4.9810903 -3.280421,6.0063513 -5.368666,-4.245219 -2.370912,6.420279 -5.929871,-3.41788 -1.410769,6.697266 -6.363951,-2.518709 -0.421164,6.831108 -6.662642,-1.564762 0.57826,6.819739 -6.819739,-0.578261 1.564762,6.662643 -6.831108,0.421163 2.518709,6.363952 -6.697265,1.410769 3.417879,5.92987 -6.420278,2.370913 4.245218,5.368666 -6.006351,3.28042 4.981091,4.693253 -5.464784,4.120679 5.612061,3.917591 -4.806942,4.872053 6.122625,3.059245 -4.046265,5.520076 6.502445,2.134753 -3.199804,6.050278 6.744808,1.16582 -2.284616,6.451801 6.841961,0.17105 -1.320334,6.71535 6.793902,-0.82682 -0.328663,6.83627 6.601147,-1.80712 0.670243,6.81147 6.267318,-2.7497 1.655196,6.64145 5.80068,-3.63233 2.603976,6.32932 5.210016,-4.43848 3.497461,5.88336 4.508251,-5.15007 4.31705,5.31078 3.710885,-5.75107 5.044135,4.62556 2.833421,-6.23011 5.664253,3.84214 1.896009,-6.57634 6.163449,2.97604 0.91829,-6.78201 6.53087,2.0469 -0.0791,-6.84351 6.75928,1.07436 -1.07435,-6.75928 6.8435,0.0791 -2.0469,-6.530864 6.78202,-0.91829 -2.97657,-6.163447 6.57686,-1.89601 -3.84214,-5.664253 6.23011,-2.83342 -4.62555,-5.044136 5.75106,-3.710884 -5.31078,-4.31705 5.14955,-4.508251 -5.88284,-3.497461 4.43849,-5.210016 -6.32933,-2.603977 3.63233,-5.80068 -6.64145,-1.655196 2.7497,-6.267317 -6.81147,-0.670243 1.80713,-6.601148 -6.83628,0.328663 0.82683,-6.793902 -6.71536,1.320335 -0.17105,-6.841961 -6.451799,2.284616 -1.16582,-6.744293 -6.050277,3.199289 -2.134754,-6.502445 -5.520076,4.046265 -3.059245,-6.1226249 -4.872053,4.8069419 z m -1.993678,9.2914231 a 4.7624997,4.7624997 0 0 1 4.7625,4.7625 4.7624997,4.7624997 0 0 1 -4.7625,4.7625 4.7624997,4.7624997 0 0 1 -4.7625,-4.7625 4.7624997,4.7624997 0 0 1 4.7625,-4.7625 z m 6.538619,2.934705 a 48.712273,48.712273 0 0 1 42.923993,48.363973 48.712273,48.712273 0 0 1 -5.88594,23.209951 6.614583,6.614583 0 0 0 -5.21209,-2.541963 6.614583,6.614583 0 0 0 -6.61458,6.614583 6.614583,6.614583 0 0 0 4.34082,6.207378 48.712273,48.712273 0 0 1 -35.34048,15.22232 48.712273,48.712273 0 0 1 -35.63245,-15.5143 6.614583,6.614583 0 0 0 3.661275,-5.915398 6.614583,6.614583 0 0 0 -6.614583,-6.614583 6.614583,6.614583 0 0 0 -4.58215,1.848982 48.712273,48.712273 0 0 1 -5.544364,-22.51697 48.712273,48.712273 0 0 1 41.899768,-48.198092 6.614583,6.614583 0 0 0 -0.287838,1.926497 6.614583,6.614583 0 0 0 6.614583,6.614584 6.614583,6.614583 0 0 0 6.614584,-6.614584 6.614583,6.614583 0 0 0 -0.340548,-2.092378 z M 32.808332,91.810415 a 4.7624997,4.7624997 0 0 1 4.7625,4.7625 4.7624997,4.7624997 0 0 1 -4.7625,4.762505 4.7624997,4.7624997 0 0 1 -4.7625,-4.762505 4.7624997,4.7624997 0 0 1 4.7625,-4.7625 z m 76.199998,0 a 4.7624997,4.7624997 0 0 1 4.7625,4.7625 4.7624997,4.7624997 0 0 1 -4.7625,4.762505 4.7624997,4.7624997 0 0 1 -4.7625,-4.762505 4.7624997,4.7624997 0 0 1 4.7625,-4.7625 z" />
    <g
       aria-label="toy script language"
       id="text13278"
       style="font-size:14.1111px;line-height:1.25;font-family:'Courier New';-inkscape-font-specification:'Courier New';letter-spacing:0px;word-spacing:0px;stroke-width:0.264583"
       transform="translate(2.6431957,7.70187)">
      <path
         d="m 17.507971,141.45425 q 0,0.19981 -0.02756,0.31694 -0.02756,0.11714 -0.08268,0.17226 -0.05512,0.0551 -0.165364,0.10335 -0.110243,0.0482 -0.254937,0.0758 -0.137804,0.0345 -0.296278,0.0551 -0.158474,0.0207 -0.316949,0.0207 -0.482312,0 -0.826822,-0.12403 -0.344509,-0.13091 -0.564995,-0.38585 -0.220486,-0.26182 -0.323839,-0.65457 -0.09646,-0.39963 -0.09646,-0.93706 v -3.62424 h -0.868164 q -0.103353,0 -0.165364,-0.11024 -0.06201,-0.11024 -0.06201,-0.35829 0,-0.13091 0.01378,-0.22049 0.02067,-0.0896 0.04823,-0.14469 0.02756,-0.062 0.0689,-0.0827 0.04823,-0.0276 0.103352,-0.0276 h 0.861274 v -1.4745 q 0,-0.0482 0.02067,-0.0896 0.02756,-0.0413 0.08957,-0.0689 0.0689,-0.0345 0.179144,-0.0482 0.110243,-0.0138 0.275608,-0.0138 0.172255,0 0.282498,0.0138 0.110242,0.0138 0.172254,0.0482 0.06201,0.0276 0.08957,0.0689 0.02756,0.0413 0.02756,0.0896 v 1.4745 h 1.591633 q 0.05512,0 0.09646,0.0276 0.04134,0.0207 0.0689,0.0827 0.03445,0.0551 0.04823,0.14469 0.01378,0.0896 0.01378,0.22049 0,0.24805 -0.06201,0.35829 -0.06201,0.11024 -0.165365,0.11024 h -1.591633 v 3.45888 q 0,0.64078 0.186035,0.97151 0.192926,0.32384 0.682129,0.32384 0.158474,0 0.282497,-0.0276 0.124024,-0.0344 0.220486,-0.0689 0.09646,-0.0345 0.165365,-0.062 0.0689,-0.0345 0.124023,-0.0345 0.03445,0 0.06201,0.0207 0.03445,0.0138 0.04823,0.062 0.02067,0.0482 0.03445,0.13091 0.01378,0.0827 0.01378,0.20671 z"
         style="font-family:Calibri;-inkscape-font-specification:Calibri"
         id="path16840" />
      <path
         d="m 24.639314,138.73951 q 0,0.75792 -0.199816,1.39871 -0.199815,0.6339 -0.599446,1.09554 -0.39274,0.46164 -0.992187,0.72347 -0.592556,0.25494 -1.378037,0.25494 -0.76481,0 -1.336696,-0.22738 -0.564995,-0.22738 -0.943955,-0.66146 -0.37896,-0.43408 -0.564995,-1.0542 -0.186035,-0.62011 -0.186035,-1.40559 0,-0.75792 0.192925,-1.39182 0.199815,-0.64079 0.592556,-1.10243 0.399631,-0.46164 0.992186,-0.71658 0.592556,-0.25494 1.384928,-0.25494 0.76481,0 1.329806,0.22738 0.571885,0.22738 0.950845,0.66146 0.37896,0.43408 0.564995,1.0542 0.192926,0.62011 0.192926,1.3987 z m -1.198893,0.0758 q 0,-0.50299 -0.09646,-0.95085 -0.08957,-0.44786 -0.303168,-0.78548 -0.213596,-0.33762 -0.578776,-0.53055 -0.36518,-0.19981 -0.909505,-0.19981 -0.502983,0 -0.868163,0.17914 -0.35829,0.17915 -0.592556,0.50988 -0.234266,0.32384 -0.351399,0.7717 -0.110243,0.44786 -0.110243,0.9784 0,0.50988 0.08957,0.95774 0.09646,0.44786 0.310058,0.78548 0.220486,0.33073 0.585666,0.53055 0.36518,0.19292 0.909505,0.19292 0.496093,0 0.861273,-0.17914 0.36518,-0.17915 0.599446,-0.50299 0.234266,-0.32384 0.344509,-0.7717 0.110243,-0.44786 0.110243,-0.98529 z"
         style="font-family:Calibri;-inkscape-font-specification:Calibri"
         id="path16842" />
      <path
         d="m 29.062812,142.08125 -0.826822,2.28065 q -0.04134,0.11025 -0.213596,0.16537 -0.165364,0.062 -0.509874,0.062 -0.179144,0 -0.289387,-0.0207 -0.110243,-0.0138 -0.172255,-0.0551 -0.05512,-0.0413 -0.06201,-0.11024 -0.0069,-0.0689 0.03445,-0.16537 l 0.854383,-2.15663 q -0.06201,-0.0276 -0.117133,-0.0896 -0.05512,-0.062 -0.07579,-0.13091 l -2.21175,-5.92556 q -0.05512,-0.1447 -0.05512,-0.22738 0,-0.0827 0.05512,-0.13091 0.05512,-0.0482 0.179145,-0.062 0.124024,-0.0207 0.330729,-0.0207 0.206706,0 0.323839,0.0138 0.117133,0.007 0.186035,0.0345 0.0689,0.0276 0.09646,0.0827 0.03445,0.0482 0.0689,0.1378 l 1.770778,4.97472 h 0.02067 l 1.708766,-5.00228 q 0.04134,-0.13091 0.09646,-0.16536 0.06201,-0.0413 0.179145,-0.0551 0.117133,-0.0207 0.337619,-0.0207 0.192925,0 0.316949,0.0207 0.124023,0.0138 0.179145,0.062 0.06201,0.0482 0.06201,0.13091 0,0.0827 -0.04134,0.20671 z"
         style="font-family:Calibri;-inkscape-font-specification:Calibri"
         id="path16844" />
      <path
         d="m 39.708149,140.2209 q 0,0.47543 -0.179145,0.8475 -0.172254,0.37207 -0.496093,0.627 -0.323839,0.25494 -0.771701,0.38585 -0.447862,0.13092 -0.985296,0.13092 -0.330729,0 -0.633897,-0.0551 -0.296278,-0.0482 -0.537435,-0.12403 -0.234266,-0.0827 -0.399631,-0.16536 -0.165364,-0.0896 -0.241156,-0.15848 -0.07579,-0.0689 -0.110243,-0.19292 -0.03445,-0.12403 -0.03445,-0.33762 0,-0.13091 0.01378,-0.22049 0.01378,-0.0896 0.03445,-0.14469 0.02067,-0.0551 0.05512,-0.0758 0.04134,-0.0276 0.08957,-0.0276 0.07579,0 0.220486,0.0965 0.151584,0.0896 0.36518,0.19981 0.220486,0.11025 0.516764,0.20671 0.296278,0.0896 0.682128,0.0896 0.289388,0 0.523654,-0.062 0.234267,-0.062 0.406521,-0.17914 0.172255,-0.12403 0.261827,-0.31006 0.09646,-0.18604 0.09646,-0.44097 0,-0.26183 -0.137804,-0.44098 -0.130913,-0.17914 -0.351399,-0.31695 -0.220486,-0.1378 -0.496094,-0.24115 -0.275607,-0.11024 -0.571885,-0.22738 -0.289388,-0.11713 -0.571885,-0.26182 -0.275608,-0.15159 -0.496094,-0.36518 -0.220486,-0.2136 -0.358289,-0.50988 -0.130914,-0.29628 -0.130914,-0.70969 0,-0.36518 0.137804,-0.69591 0.144694,-0.33762 0.427191,-0.58566 0.282498,-0.25494 0.702799,-0.40652 0.427192,-0.15159 0.992187,-0.15159 0.248047,0 0.496093,0.0413 0.248047,0.0413 0.447862,0.10336 0.199816,0.062 0.337619,0.1378 0.144694,0.0689 0.213596,0.12402 0.07579,0.0551 0.09646,0.0965 0.02756,0.0413 0.03445,0.0965 0.01378,0.0482 0.02067,0.12402 0.01378,0.0758 0.01378,0.18604 0,0.11713 -0.01378,0.2067 -0.0069,0.0827 -0.03445,0.13781 -0.02067,0.0551 -0.05512,0.0827 -0.03445,0.0207 -0.07579,0.0207 -0.06201,0 -0.179145,-0.0758 -0.117133,-0.0758 -0.303168,-0.15848 -0.186035,-0.0896 -0.440972,-0.16536 -0.248047,-0.0758 -0.571885,-0.0758 -0.289388,0 -0.509874,0.0689 -0.220486,0.062 -0.36518,0.18603 -0.137804,0.11714 -0.213596,0.2825 -0.0689,0.16537 -0.0689,0.35829 0,0.26872 0.137804,0.45475 0.137804,0.17915 0.35829,0.31695 0.220486,0.13781 0.502983,0.24805 0.282498,0.11024 0.571886,0.22737 0.296278,0.11714 0.578775,0.26183 0.289388,0.1447 0.509874,0.3514 0.220486,0.20671 0.351399,0.49609 0.137804,0.28939 0.137804,0.68902 z"
         style="font-family:Calibri;-inkscape-font-specification:Calibri"
         id="path16846" />
      <path
         d="m 45.792184,140.96504 q 0,0.11714 -0.0069,0.20671 -0.0069,0.0827 -0.02756,0.14469 -0.01378,0.0551 -0.04134,0.10336 -0.02067,0.0413 -0.110242,0.13091 -0.08268,0.0827 -0.289388,0.21359 -0.206706,0.12403 -0.468533,0.22738 -0.254937,0.0965 -0.558105,0.15847 -0.303168,0.062 -0.627007,0.062 -0.668348,0 -1.185112,-0.22049 -0.516764,-0.22049 -0.868163,-0.64079 -0.344509,-0.42719 -0.530544,-1.04041 -0.179145,-0.62012 -0.179145,-1.42627 0,-0.9164 0.220486,-1.57097 0.227376,-0.66145 0.613226,-1.08175 0.392741,-0.42031 0.916395,-0.62012 0.530544,-0.20671 1.143771,-0.20671 0.296278,0 0.571885,0.0551 0.282498,0.0551 0.516764,0.1447 0.234266,0.0896 0.413411,0.2067 0.186035,0.11714 0.268717,0.19982 0.08268,0.0827 0.110243,0.13091 0.03445,0.0482 0.05512,0.11714 0.02067,0.062 0.02756,0.14469 0.0069,0.0827 0.0069,0.20671 0,0.26871 -0.06201,0.37896 -0.06201,0.10335 -0.151584,0.10335 -0.103353,0 -0.241156,-0.11024 -0.130914,-0.11714 -0.33762,-0.25494 -0.206705,-0.1378 -0.502983,-0.24805 -0.289388,-0.11713 -0.689019,-0.11713 -0.819932,0 -1.260904,0.6339 -0.434081,0.627 -0.434081,1.8259 0,0.59944 0.110243,1.05419 0.117133,0.44787 0.337619,0.75103 0.220486,0.30317 0.537434,0.45476 0.323839,0.14469 0.73725,0.14469 0.392741,0 0.689019,-0.12402 0.296278,-0.12403 0.509873,-0.26872 0.220486,-0.15158 0.36518,-0.26872 0.151584,-0.12402 0.234267,-0.12402 0.04823,0 0.08268,0.0276 0.03445,0.0276 0.05512,0.0965 0.02756,0.062 0.03445,0.16537 0.01378,0.0965 0.01378,0.23426 z"
         style="font-family:Calibri;-inkscape-font-specification:Calibri"
         id="path16848" />
      <path
         d="m 50.925371,136.11435 q 0,0.15159 -0.0069,0.25494 -0.0069,0.10335 -0.02756,0.16536 -0.02067,0.0551 -0.05512,0.0896 -0.02756,0.0276 -0.08268,0.0276 -0.05512,0 -0.137803,-0.0276 -0.07579,-0.0345 -0.179145,-0.062 -0.09646,-0.0344 -0.220486,-0.062 -0.124024,-0.0276 -0.268717,-0.0276 -0.172255,0 -0.33762,0.0689 -0.165364,0.0689 -0.351399,0.22738 -0.179145,0.15847 -0.37896,0.4203 -0.199816,0.26183 -0.440972,0.64079 v 4.07899 q 0,0.0551 -0.02756,0.0965 -0.02756,0.0344 -0.08957,0.062 -0.06201,0.0276 -0.172255,0.0413 -0.110243,0.0138 -0.282497,0.0138 -0.165365,0 -0.275608,-0.0138 -0.110243,-0.0138 -0.179145,-0.0413 -0.06201,-0.0276 -0.08957,-0.062 -0.02067,-0.0413 -0.02067,-0.0965 v -6.20117 q 0,-0.0551 0.02067,-0.0896 0.02067,-0.0413 0.08268,-0.0689 0.06201,-0.0345 0.158474,-0.0413 0.09646,-0.0138 0.254937,-0.0138 0.151584,0 0.248047,0.0138 0.103353,0.007 0.158474,0.0413 0.05512,0.0276 0.07579,0.0689 0.02756,0.0345 0.02756,0.0896 v 0.90262 q 0.254937,-0.37207 0.475423,-0.60634 0.227376,-0.23427 0.427191,-0.36518 0.199816,-0.1378 0.392741,-0.18604 0.199815,-0.0551 0.399631,-0.0551 0.08957,0 0.199815,0.0138 0.117133,0.007 0.241157,0.0344 0.124023,0.0276 0.220485,0.062 0.103353,0.0345 0.144694,0.0689 0.04134,0.0344 0.05512,0.0689 0.01378,0.0276 0.02067,0.0758 0.01378,0.0482 0.01378,0.1447 0.0069,0.0896 0.0069,0.24804 z"
         style="font-family:Calibri;-inkscape-font-specification:Calibri"
         id="path16850" />
      <path
         d="m 53.357608,141.909 q 0,0.0551 -0.02756,0.0965 -0.02756,0.0344 -0.08957,0.062 -0.06201,0.0276 -0.172255,0.0413 -0.110243,0.0138 -0.282498,0.0138 -0.165364,0 -0.275607,-0.0138 -0.110243,-0.0138 -0.179145,-0.0413 -0.06201,-0.0276 -0.08957,-0.062 -0.02067,-0.0413 -0.02067,-0.0965 v -6.20117 q 0,-0.0482 0.02067,-0.0896 0.02756,-0.0413 0.08957,-0.0689 0.0689,-0.0276 0.179145,-0.0413 0.110243,-0.0138 0.275607,-0.0138 0.172255,0 0.282498,0.0138 0.110243,0.0138 0.172255,0.0413 0.06201,0.0276 0.08957,0.0689 0.02756,0.0413 0.02756,0.0896 z m 0.130913,-8.29579 q 0,0.39964 -0.151584,0.54433 -0.151584,0.14469 -0.558105,0.14469 -0.399631,0 -0.551215,-0.1378 -0.144694,-0.14469 -0.144694,-0.53743 0,-0.39964 0.151584,-0.54433 0.151585,-0.14469 0.558106,-0.14469 0.39963,0 0.544324,0.14469 0.151584,0.1378 0.151584,0.53054 z"
         style="font-family:Calibri;-inkscape-font-specification:Calibri"
         id="path16852" />
      <path
         d="m 61.164189,138.71195 q 0,0.81304 -0.179145,1.46072 -0.172255,0.64768 -0.516764,1.10243 -0.337619,0.44786 -0.840603,0.69591 -0.502983,0.24116 -1.150661,0.24116 -0.275607,0 -0.509873,-0.0551 -0.234267,-0.0551 -0.461643,-0.17226 -0.220486,-0.11713 -0.440972,-0.29628 -0.220486,-0.17914 -0.468532,-0.4203 v 3.10058 q 0,0.0551 -0.02756,0.0965 -0.02756,0.0413 -0.08957,0.0689 -0.06201,0.0276 -0.172255,0.0413 -0.110243,0.0138 -0.282498,0.0138 -0.165364,0 -0.275607,-0.0138 -0.110243,-0.0138 -0.179145,-0.0413 -0.06201,-0.0276 -0.08957,-0.0689 -0.02067,-0.0413 -0.02067,-0.0965 v -8.66096 q 0,-0.062 0.02067,-0.0965 0.02067,-0.0413 0.08268,-0.0689 0.06201,-0.0276 0.158474,-0.0345 0.09646,-0.0138 0.234267,-0.0138 0.144693,0 0.234266,0.0138 0.09646,0.007 0.158474,0.0345 0.06201,0.0276 0.08268,0.0689 0.02756,0.0344 0.02756,0.0965 v 0.83371 q 0.282498,-0.28938 0.544325,-0.50298 0.261827,-0.2136 0.523654,-0.3514 0.268717,-0.14469 0.544325,-0.21359 0.282497,-0.0758 0.592555,-0.0758 0.675239,0 1.150661,0.26183 0.475423,0.26183 0.771701,0.71658 0.303168,0.45475 0.440972,1.06109 0.137804,0.59944 0.137804,1.27468 z m -1.198892,0.13092 q 0,-0.47543 -0.07579,-0.9164 -0.0689,-0.44786 -0.248047,-0.79237 -0.172255,-0.34451 -0.468533,-0.55122 -0.296278,-0.2067 -0.73725,-0.2067 -0.220486,0 -0.434081,0.0689 -0.213596,0.062 -0.434082,0.20671 -0.220486,0.1378 -0.461642,0.37207 -0.241157,0.22737 -0.509874,0.56499 v 2.46669 q 0.468532,0.57188 0.888834,0.87505 0.420301,0.30317 0.881944,0.30317 0.427191,0 0.730359,-0.20671 0.310059,-0.2067 0.496094,-0.55121 0.192925,-0.34451 0.282497,-0.7717 0.08957,-0.42719 0.08957,-0.86127 z"
         style="font-family:Calibri;-inkscape-font-specification:Calibri"
         id="path16854" />
      <path
         d="m 66.035548,141.45425 q 0,0.19981 -0.02756,0.31694 -0.02756,0.11714 -0.08268,0.17226 -0.05512,0.0551 -0.165365,0.10335 -0.110243,0.0482 -0.254937,0.0758 -0.137803,0.0345 -0.296278,0.0551 -0.158474,0.0207 -0.316948,0.0207 -0.482313,0 -0.826822,-0.12403 -0.34451,-0.13091 -0.564996,-0.38585 -0.220485,-0.26182 -0.323838,-0.65457 -0.09646,-0.39963 -0.09646,-0.93706 v -3.62424 h -0.868163 q -0.103353,0 -0.165365,-0.11024 -0.06201,-0.11024 -0.06201,-0.35829 0,-0.13091 0.01378,-0.22049 0.02067,-0.0896 0.04823,-0.14469 0.02756,-0.062 0.0689,-0.0827 0.04823,-0.0276 0.103353,-0.0276 h 0.861273 v -1.4745 q 0,-0.0482 0.02067,-0.0896 0.02756,-0.0413 0.08957,-0.0689 0.0689,-0.0345 0.179145,-0.0482 0.110243,-0.0138 0.275607,-0.0138 0.172255,0 0.282498,0.0138 0.110243,0.0138 0.172255,0.0482 0.06201,0.0276 0.08957,0.0689 0.02756,0.0413 0.02756,0.0896 v 1.4745 h 1.591633 q 0.05512,0 0.09646,0.0276 0.04134,0.0207 0.0689,0.0827 0.03445,0.0551 0.04823,0.14469 0.01378,0.0896 0.01378,0.22049 0,0.24805 -0.06201,0.35829 -0.06201,0.11024 -0.165364,0.11024 h -1.591633 v 3.45888 q 0,0.64078 0.186035,0.97151 0.192925,0.32384 0.682128,0.32384 0.158474,0 0.282498,-0.0276 0.124023,-0.0344 0.220486,-0.0689 0.09646,-0.0345 0.165364,-0.062 0.0689,-0.0345 0.124023,-0.0345 0.03445,0 0.06201,0.0207 0.03445,0.0138 0.04823,0.062 0.02067,0.0482 0.03445,0.13091 0.01378,0.0827 0.01378,0.20671 z"
         style="font-family:Calibri;-inkscape-font-specification:Calibri"
         id="path16856" />
      <path
         d="m 71.864646,141.909 q 0,0.0551 -0.02756,0.0965 -0.02756,0.0344 -0.08957,0.062 -0.06201,0.0276 -0.172255,0.0413 -0.110243,0.0138 -0.282498,0.0138 -0.165364,0 -0.275607,-0.0138 -0.110243,-0.0138 -0.179145,-0.0413 -0.06201,-0.0276 -0.08957,-0.062 -0.02067,-0.0413 -0.02067,-0.0965 v -9.20529 q 0,-0.0551 0.02067,-0.0965 0.02756,-0.0413 0.08957,-0.0689 0.0689,-0.0276 0.179145,-0.0413 0.110243,-0.0138 0.275607,-0.0138 0.172255,0 0.282498,0.0138 0.110243,0.0138 0.172255,0.0413 0.06201,0.0276 0.08957,0.0689 0.02756,0.0413 0.02756,0.0965 z"
         style="font-family:Calibri;-inkscape-font-specification:Calibri"
         id="path16858" />
      <path
         d="m 78.637699,141.91589 q 0,0.0827 -0.05512,0.12402 -0.05512,0.0413 -0.151584,0.062 -0.09646,0.0207 -0.282498,0.0207 -0.179145,0 -0.289388,-0.0207 -0.103353,-0.0207 -0.151584,-0.062 -0.04823,-0.0413 -0.04823,-0.12402 v -0.62012 q -0.406521,0.43408 -0.909505,0.67524 -0.496093,0.24116 -1.054198,0.24116 -0.489203,0 -0.888834,-0.13092 -0.392741,-0.12402 -0.675238,-0.36518 -0.275608,-0.24115 -0.434082,-0.59255 -0.151584,-0.3514 -0.151584,-0.79926 0,-0.52366 0.213596,-0.90951 0.213595,-0.38585 0.613226,-0.64079 0.399631,-0.25493 0.978407,-0.37896 0.578775,-0.13091 1.302245,-0.13091 h 0.854383 v -0.48231 q 0,-0.35829 -0.07579,-0.6339 -0.07579,-0.27561 -0.248047,-0.45475 -0.165364,-0.18604 -0.434082,-0.27561 -0.268717,-0.0965 -0.661458,-0.0965 -0.420301,0 -0.75792,0.10335 -0.330729,0.0965 -0.585666,0.22049 -0.248046,0.11713 -0.420301,0.22048 -0.165365,0.0965 -0.248047,0.0965 -0.05512,0 -0.09646,-0.0276 -0.04134,-0.0276 -0.07579,-0.0827 -0.02756,-0.0551 -0.04134,-0.1378 -0.01378,-0.0896 -0.01378,-0.19293 0,-0.17225 0.02067,-0.26871 0.02756,-0.10336 0.117133,-0.19293 0.09646,-0.0896 0.323839,-0.2067 0.227376,-0.12403 0.523654,-0.22049 0.296278,-0.10335 0.647677,-0.16537 0.3514,-0.0689 0.709689,-0.0689 0.668348,0 1.136881,0.15159 0.468533,0.15158 0.75792,0.44786 0.289388,0.28939 0.420302,0.72347 0.130913,0.43408 0.130913,1.01286 z m -1.12999,-2.83187 h -0.971516 q -0.468533,0 -0.813042,0.0827 -0.34451,0.0758 -0.571886,0.23427 -0.227376,0.15158 -0.337619,0.37207 -0.103353,0.2136 -0.103353,0.49609 0,0.48232 0.303169,0.77171 0.310058,0.28249 0.861273,0.28249 0.447862,0 0.826822,-0.22737 0.38585,-0.22738 0.806152,-0.69591 z"
         style="font-family:Calibri;-inkscape-font-specification:Calibri"
         id="path16860" />
      <path
         d="m 86.065321,141.909 q 0,0.0551 -0.02756,0.0965 -0.02756,0.0344 -0.08957,0.062 -0.06201,0.0276 -0.172255,0.0413 -0.110243,0.0138 -0.275608,0.0138 -0.172254,0 -0.282497,-0.0138 -0.110243,-0.0138 -0.172255,-0.0413 -0.06201,-0.0276 -0.08957,-0.062 -0.02756,-0.0413 -0.02756,-0.0965 v -3.63113 q 0,-0.53054 -0.08268,-0.85438 -0.08268,-0.32384 -0.241157,-0.55811 -0.158474,-0.23426 -0.413411,-0.35829 -0.248046,-0.12402 -0.578775,-0.12402 -0.427192,0 -0.854383,0.30317 -0.427192,0.30317 -0.895725,0.88883 v 4.33393 q 0,0.0551 -0.02756,0.0965 -0.02756,0.0344 -0.08957,0.062 -0.06201,0.0276 -0.172254,0.0413 -0.110243,0.0138 -0.282498,0.0138 -0.165364,0 -0.275607,-0.0138 -0.110243,-0.0138 -0.179145,-0.0413 -0.06201,-0.0276 -0.08957,-0.062 -0.02067,-0.0413 -0.02067,-0.0965 v -6.20117 q 0,-0.0551 0.02067,-0.0896 0.02067,-0.0413 0.08268,-0.0689 0.06201,-0.0345 0.158474,-0.0413 0.09646,-0.0138 0.254937,-0.0138 0.151584,0 0.248046,0.0138 0.103353,0.007 0.158475,0.0413 0.05512,0.0276 0.07579,0.0689 0.02756,0.0345 0.02756,0.0896 v 0.81993 q 0.523655,-0.58566 1.040419,-0.85438 0.523654,-0.27561 1.054198,-0.27561 0.620117,0 1.040418,0.2136 0.427191,0.2067 0.689019,0.5581 0.261827,0.3514 0.37207,0.82683 0.117133,0.46853 0.117133,1.12999 z"
         style="font-family:Calibri;-inkscape-font-specification:Calibri"
         id="path16862" />
      <path
         d="m 93.320688,135.99033 q 0,0.24116 -0.0689,0.3514 -0.06201,0.10335 -0.165365,0.10335 h -0.888834 q 0.241157,0.24805 0.337619,0.55122 0.09646,0.29627 0.09646,0.62011 0,0.53744 -0.172255,0.95085 -0.172254,0.41341 -0.496093,0.7028 -0.316948,0.28249 -0.75792,0.43408 -0.440972,0.15158 -0.978407,0.15158 -0.37896,0 -0.723469,-0.0965 -0.337619,-0.10335 -0.523654,-0.25494 -0.124024,0.12403 -0.206706,0.2825 -0.07579,0.15848 -0.07579,0.36518 0,0.24116 0.220486,0.39963 0.227376,0.15848 0.599446,0.17226 l 1.619194,0.0689 q 0.461642,0.0138 0.847493,0.13091 0.38585,0.11024 0.668348,0.32384 0.282497,0.20671 0.440972,0.51676 0.158474,0.30317 0.158474,0.70969 0,0.4272 -0.179145,0.81305 -0.179145,0.38585 -0.551215,0.67523 -0.36518,0.29628 -0.937065,0.46165 -0.571886,0.17225 -1.350477,0.17225 -0.75103,0 -1.281574,-0.13091 -0.523654,-0.12403 -0.861273,-0.34451 -0.337619,-0.22049 -0.489203,-0.53055 -0.151585,-0.30316 -0.151585,-0.66145 0,-0.22738 0.05512,-0.44098 0.05512,-0.21359 0.165364,-0.40652 0.117134,-0.19292 0.282498,-0.36518 0.172255,-0.17914 0.392741,-0.3514 -0.337619,-0.17225 -0.502984,-0.43408 -0.158474,-0.26183 -0.158474,-0.56499 0,-0.4203 0.172254,-0.75103 0.172255,-0.33073 0.427192,-0.59256 -0.213596,-0.25494 -0.337619,-0.57188 -0.124023,-0.32384 -0.124023,-0.7786 0,-0.53054 0.179144,-0.95084 0.179145,-0.4203 0.496094,-0.70969 0.316948,-0.28939 0.75792,-0.44097 0.447862,-0.15848 0.971516,-0.15848 0.282498,0 0.523654,0.0344 0.248047,0.0276 0.461643,0.0827 h 1.87413 q 0.117134,0 0.172255,0.11713 0.06201,0.11024 0.06201,0.34451 z m -1.777668,1.63297 q 0,-0.63389 -0.3514,-0.98529 -0.344509,-0.35829 -0.985296,-0.35829 -0.330729,0 -0.578776,0.11024 -0.241156,0.11024 -0.406521,0.30317 -0.158474,0.19292 -0.241156,0.44786 -0.07579,0.24805 -0.07579,0.52365 0,0.61323 0.344509,0.96463 0.351399,0.3514 0.978406,0.3514 0.337619,0 0.585666,-0.10335 0.248047,-0.11025 0.406521,-0.29628 0.165364,-0.19293 0.241157,-0.44097 0.08268,-0.24805 0.08268,-0.51677 z m 0.571885,4.91271 q 0,-0.39964 -0.330729,-0.61323 -0.323838,-0.22049 -0.881943,-0.23427 l -1.605414,-0.0551 q -0.220486,0.17226 -0.36518,0.33073 -0.137803,0.15158 -0.220486,0.28939 -0.08268,0.14469 -0.117133,0.2825 -0.02756,0.1378 -0.02756,0.28249 0,0.44786 0.454752,0.67524 0.454752,0.23427 1.267794,0.23427 0.516764,0 0.861273,-0.10336 0.3514,-0.0965 0.564995,-0.26182 0.213596,-0.16537 0.303169,-0.37896 0.09646,-0.2136 0.09646,-0.44786 z"
         style="font-family:Calibri;-inkscape-font-specification:Calibri"
         id="path16864" />
      <path
         d="m 100.09374,141.909 q 0,0.0551 -0.0276,0.0965 -0.0207,0.0344 -0.08269,0.062 -0.06201,0.0276 -0.165365,0.0413 -0.09646,0.0138 -0.241156,0.0138 -0.158474,0 -0.261827,-0.0138 -0.09646,-0.0138 -0.158474,-0.0413 -0.05512,-0.0276 -0.07579,-0.062 -0.02067,-0.0413 -0.02067,-0.0965 v -0.81993 q -0.530544,0.58566 -1.047308,0.85438 -0.516764,0.26872 -1.047308,0.26872 -0.620117,0 -1.047309,-0.20671 -0.420301,-0.2067 -0.682128,-0.5581 -0.261827,-0.35829 -0.37896,-0.82683 -0.110243,-0.47542 -0.110243,-1.15066 v -3.76204 q 0,-0.0551 0.02067,-0.0896 0.02756,-0.0413 0.09646,-0.0689 0.0689,-0.0345 0.179145,-0.0413 0.110243,-0.0138 0.275607,-0.0138 0.165365,0 0.275608,0.0138 0.110243,0.007 0.172254,0.0413 0.0689,0.0276 0.09646,0.0689 0.02756,0.0345 0.02756,0.0896 v 3.61046 q 0,0.54432 0.07579,0.87505 0.08268,0.32384 0.241156,0.55811 0.165365,0.22737 0.413411,0.35829 0.248047,0.12402 0.578776,0.12402 0.427191,0 0.847493,-0.30317 0.427191,-0.30317 0.902614,-0.88883 v -4.33393 q 0,-0.0551 0.02067,-0.0896 0.02756,-0.0413 0.09646,-0.0689 0.0689,-0.0345 0.172255,-0.0413 0.110243,-0.0138 0.282497,-0.0138 0.165365,0 0.275608,0.0138 0.110243,0.007 0.172254,0.0413 0.06202,0.0276 0.08958,0.0689 0.0344,0.0345 0.0344,0.0896 z"
         style="font-family:Calibri;-inkscape-font-specification:Calibri"
         id="path16866" />
      <path
         d="m 106.86679,141.91589 q 0,0.0827 -0.0551,0.12402 -0.0551,0.0413 -0.15158,0.062 -0.0965,0.0207 -0.2825,0.0207 -0.17915,0 -0.28939,-0.0207 -0.10335,-0.0207 -0.15158,-0.062 -0.0482,-0.0413 -0.0482,-0.12402 v -0.62012 q -0.40652,0.43408 -0.9095,0.67524 -0.49609,0.24116 -1.0542,0.24116 -0.4892,0 -0.88883,-0.13092 -0.39274,-0.12402 -0.67524,-0.36518 -0.27561,-0.24115 -0.43408,-0.59255 -0.15159,-0.3514 -0.15159,-0.79926 0,-0.52366 0.2136,-0.90951 0.2136,-0.38585 0.61323,-0.64079 0.39963,-0.25493 0.9784,-0.37896 0.57878,-0.13091 1.30225,-0.13091 h 0.85438 v -0.48231 q 0,-0.35829 -0.0758,-0.6339 -0.0758,-0.27561 -0.24805,-0.45475 -0.16536,-0.18604 -0.43408,-0.27561 -0.26872,-0.0965 -0.66146,-0.0965 -0.4203,0 -0.75792,0.10335 -0.33073,0.0965 -0.58566,0.22049 -0.24805,0.11713 -0.42031,0.22048 -0.16536,0.0965 -0.24804,0.0965 -0.0551,0 -0.0965,-0.0276 -0.0413,-0.0276 -0.0758,-0.0827 -0.0276,-0.0551 -0.0413,-0.1378 -0.0138,-0.0896 -0.0138,-0.19293 0,-0.17225 0.0207,-0.26871 0.0276,-0.10336 0.11714,-0.19293 0.0965,-0.0896 0.32383,-0.2067 0.22738,-0.12403 0.52366,-0.22049 0.29628,-0.10335 0.64768,-0.16537 0.3514,-0.0689 0.70968,-0.0689 0.66835,0 1.13689,0.15159 0.46853,0.15158 0.75792,0.44786 0.28938,0.28939 0.4203,0.72347 0.13091,0.43408 0.13091,1.01286 z m -1.12999,-2.83187 h -0.97152 q -0.46853,0 -0.81304,0.0827 -0.34451,0.0758 -0.57188,0.23427 -0.22738,0.15158 -0.33762,0.37207 -0.10336,0.2136 -0.10336,0.49609 0,0.48232 0.30317,0.77171 0.31006,0.28249 0.86128,0.28249 0.44786,0 0.82682,-0.22737 0.38585,-0.22738 0.80615,-0.69591 z"
         style="font-family:Calibri;-inkscape-font-specification:Calibri"
         id="path16868" />
      <path
         d="m 114.13593,135.99033 q 0,0.24116 -0.0689,0.3514 -0.062,0.10335 -0.16536,0.10335 h -0.88884 q 0.24116,0.24805 0.33762,0.55122 0.0965,0.29627 0.0965,0.62011 0,0.53744 -0.17226,0.95085 -0.17225,0.41341 -0.49609,0.7028 -0.31695,0.28249 -0.75792,0.43408 -0.44097,0.15158 -0.97841,0.15158 -0.37896,0 -0.72347,-0.0965 -0.33762,-0.10335 -0.52365,-0.25494 -0.12403,0.12403 -0.20671,0.2825 -0.0758,0.15848 -0.0758,0.36518 0,0.24116 0.22049,0.39963 0.22737,0.15848 0.59944,0.17226 l 1.6192,0.0689 q 0.46164,0.0138 0.84749,0.13091 0.38585,0.11024 0.66835,0.32384 0.28249,0.20671 0.44097,0.51676 0.15847,0.30317 0.15847,0.70969 0,0.4272 -0.17914,0.81305 -0.17915,0.38585 -0.55122,0.67523 -0.36518,0.29628 -0.93706,0.46165 -0.57189,0.17225 -1.35048,0.17225 -0.75103,0 -1.28157,-0.13091 -0.52366,-0.12403 -0.86128,-0.34451 -0.33762,-0.22049 -0.4892,-0.53055 -0.15158,-0.30316 -0.15158,-0.66145 0,-0.22738 0.0551,-0.44098 0.0551,-0.21359 0.16536,-0.40652 0.11714,-0.19292 0.2825,-0.36518 0.17225,-0.17914 0.39274,-0.3514 -0.33762,-0.17225 -0.50298,-0.43408 -0.15848,-0.26183 -0.15848,-0.56499 0,-0.4203 0.17226,-0.75103 0.17225,-0.33073 0.42719,-0.59256 -0.2136,-0.25494 -0.33762,-0.57188 -0.12402,-0.32384 -0.12402,-0.7786 0,-0.53054 0.17914,-0.95084 0.17915,-0.4203 0.49609,-0.70969 0.31695,-0.28939 0.75792,-0.44097 0.44787,-0.15848 0.97152,-0.15848 0.2825,0 0.52366,0.0344 0.24804,0.0276 0.46164,0.0827 h 1.87413 q 0.11713,0 0.17225,0.11713 0.062,0.11024 0.062,0.34451 z m -1.77766,1.63297 q 0,-0.63389 -0.3514,-0.98529 -0.34451,-0.35829 -0.9853,-0.35829 -0.33073,0 -0.57878,0.11024 -0.24115,0.11024 -0.40652,0.30317 -0.15847,0.19292 -0.24115,0.44786 -0.0758,0.24805 -0.0758,0.52365 0,0.61323 0.3445,0.96463 0.3514,0.3514 0.97841,0.3514 0.33762,0 0.58567,-0.10335 0.24804,-0.11025 0.40652,-0.29628 0.16536,-0.19293 0.24115,-0.44097 0.0827,-0.24805 0.0827,-0.51677 z m 0.57188,4.91271 q 0,-0.39964 -0.33073,-0.61323 -0.32384,-0.22049 -0.88194,-0.23427 l -1.60541,-0.0551 q -0.22049,0.17226 -0.36518,0.33073 -0.13781,0.15158 -0.22049,0.28939 -0.0827,0.14469 -0.11713,0.2825 -0.0276,0.1378 -0.0276,0.28249 0,0.44786 0.45475,0.67524 0.45475,0.23427 1.26779,0.23427 0.51677,0 0.86128,-0.10336 0.3514,-0.0965 0.56499,-0.26182 0.2136,-0.16537 0.30317,-0.37896 0.0965,-0.2136 0.0965,-0.44786 z"
         style="font-family:Calibri;-inkscape-font-specification:Calibri"
         id="path16870" />
      <path
         d="m 120.77119,138.5397 q 0,0.26871 -0.13781,0.38585 -0.13091,0.11024 -0.30317,0.11024 H 116.265 q 0,0.51676 0.10336,0.93018 0.10335,0.41341 0.34451,0.70969 0.24115,0.29627 0.627,0.45475 0.38585,0.15847 0.94396,0.15847 0.44097,0 0.78548,-0.0689 0.34451,-0.0758 0.59256,-0.16536 0.25493,-0.0896 0.41341,-0.15848 0.16536,-0.0758 0.24804,-0.0758 0.0482,0 0.0827,0.0276 0.0413,0.0207 0.062,0.0689 0.0207,0.0482 0.0276,0.13781 0.0138,0.0827 0.0138,0.2067 0,0.0896 -0.007,0.15848 -0.007,0.062 -0.0207,0.11713 -0.007,0.0482 -0.0345,0.0896 -0.0207,0.0413 -0.062,0.0827 -0.0344,0.0344 -0.22049,0.12403 -0.18603,0.0827 -0.48231,0.16536 -0.29628,0.0827 -0.68902,0.14469 -0.38585,0.0689 -0.82682,0.0689 -0.76481,0 -1.34359,-0.2136 -0.57189,-0.21359 -0.96463,-0.6339 -0.39274,-0.4203 -0.59255,-1.05419 -0.19982,-0.6339 -0.19982,-1.4745 0,-0.79927 0.20671,-1.43316 0.2067,-0.64079 0.59255,-1.08176 0.39274,-0.44786 0.94396,-0.68213 0.55121,-0.24116 1.23334,-0.24116 0.73036,0 1.24024,0.23427 0.51676,0.23427 0.84749,0.6339 0.33073,0.39274 0.48231,0.93017 0.15848,0.53055 0.15848,1.13688 z m -1.14377,-0.33762 q 0.0207,-0.89573 -0.39964,-1.4056 -0.41341,-0.50987 -1.23334,-0.50987 -0.4203,0 -0.73725,0.15847 -0.31695,0.15848 -0.53054,0.4203 -0.2136,0.26183 -0.33073,0.61323 -0.11713,0.34451 -0.13092,0.72347 z"
         style="font-family:Calibri;-inkscape-font-specification:Calibri"
         id="path16872" />
    </g>
    <g
       aria-label="Dust"
       id="text22035"
       style="font-size:19.7556px;line-height:1.25;font-family:'Courier New';-inkscape-font-specification:'Courier New';letter-spacing:0px;word-spacing:0px;stroke-width:0.264583"
       transform="translate(-24.892948,-33.712056)">
      <path
         d="m 51.73847,164.76098 q 0,1.62058 -0.41479,2.83601 -0.414791,1.20579 -1.215433,2.00643 -0.790995,0.79099 -1.94855,1.18649 -1.157555,0.3955 -2.758839,0.3955 h -2.643083 q -0.221865,0 -0.424437,-0.14469 -0.192926,-0.15435 -0.192926,-0.53055 v -11.13182 q 0,-0.3762 0.192926,-0.5209 0.202572,-0.15434 0.424437,-0.15434 h 2.826363 q 1.620576,0 2.739546,0.42444 1.118969,0.41479 1.87138,1.20578 0.762057,0.78135 1.147908,1.90032 0.395498,1.11897 0.395498,2.52733 z m -1.745978,0.0675 q 0,-1.01287 -0.250804,-1.88103 -0.250803,-0.87781 -0.790995,-1.51447 -0.530546,-0.63665 -1.350481,-0.99357 -0.819934,-0.35691 -2.112537,-0.35691 h -1.688101 v 9.71381 h 1.707393 q 1.19614,0 2.016075,-0.29903 0.819934,-0.29904 1.369773,-0.9164 0.549838,-0.61736 0.819934,-1.5434 0.279743,-0.93569 0.279743,-2.209 z"
         style="font-family:Calibri;-inkscape-font-specification:Calibri"
         id="path27103" />
      <path
         d="m 61.548746,170.94425 q 0,0.0772 -0.03859,0.13505 -0.02894,0.0482 -0.115755,0.0868 -0.08682,0.0386 -0.231511,0.0579 -0.135048,0.0193 -0.33762,0.0193 -0.221865,0 -0.366559,-0.0193 -0.135048,-0.0193 -0.221865,-0.0579 -0.07717,-0.0386 -0.106109,-0.0868 -0.02894,-0.0579 -0.02894,-0.13505 v -1.14791 q -0.742764,0.81994 -1.466236,1.19614 -0.723472,0.37621 -1.466236,0.37621 -0.868166,0 -1.466236,-0.28939 -0.588423,-0.28939 -0.954982,-0.78135 -0.366559,-0.50161 -0.530546,-1.15755 -0.154341,-0.6656 -0.154341,-1.61093 v -5.26688 q 0,-0.0772 0.02894,-0.1254 0.03858,-0.0579 0.135048,-0.0965 0.09646,-0.0482 0.250804,-0.0579 0.15434,-0.0193 0.385851,-0.0193 0.231511,0 0.385852,0.0193 0.15434,0.01 0.241157,0.0579 0.09646,0.0386 0.135048,0.0965 0.03858,0.0482 0.03858,0.1254 v 5.05466 q 0,0.76205 0.106109,1.22508 0.115756,0.45337 0.33762,0.78135 0.231511,0.31832 0.578778,0.5016 0.347266,0.17364 0.810288,0.17364 0.59807,0 1.186494,-0.42444 0.598069,-0.42444 1.263663,-1.24437 v -6.06752 q 0,-0.0772 0.02894,-0.1254 0.03858,-0.0579 0.135048,-0.0965 0.09646,-0.0482 0.241158,-0.0579 0.15434,-0.0193 0.395497,-0.0193 0.231511,0 0.385852,0.0193 0.154341,0.01 0.241157,0.0579 0.08682,0.0386 0.125402,0.0965 0.04823,0.0482 0.04823,0.1254 z"
         style="font-family:Calibri;-inkscape-font-specification:Calibri"
         id="path27105" />
      <path
         d="m 69.941018,168.58091 q 0,0.6656 -0.250804,1.1865 -0.241157,0.52089 -0.694533,0.87781 -0.453375,0.35691 -1.080384,0.54019 -0.627009,0.18328 -1.379419,0.18328 -0.463022,0 -0.887459,-0.0772 -0.41479,-0.0675 -0.75241,-0.17363 -0.327974,-0.11576 -0.559485,-0.23152 -0.231511,-0.1254 -0.33762,-0.22186 -0.106109,-0.0965 -0.154341,-0.2701 -0.04823,-0.17363 -0.04823,-0.47266 0,-0.18328 0.01929,-0.30869 0.01929,-0.1254 0.04823,-0.20257 0.02894,-0.0772 0.07717,-0.10611 0.05788,-0.0386 0.125402,-0.0386 0.106109,0 0.308681,0.13505 0.212218,0.1254 0.511253,0.27974 0.308682,0.15434 0.723472,0.28939 0.41479,0.1254 0.954983,0.1254 0.405144,0 0.733118,-0.0868 0.327973,-0.0868 0.569131,-0.2508 0.241157,-0.17363 0.366559,-0.43408 0.135048,-0.26045 0.135048,-0.61737 0,-0.36656 -0.192926,-0.61736 -0.18328,-0.2508 -0.491961,-0.44373 -0.308681,-0.19292 -0.694533,-0.33762 -0.385851,-0.15434 -0.800642,-0.31833 -0.405144,-0.16398 -0.800642,-0.36656 -0.385851,-0.21221 -0.694532,-0.51125 -0.308682,-0.29903 -0.501608,-0.71382 -0.183279,-0.41479 -0.183279,-0.99357 0,-0.51125 0.192926,-0.97428 0.202572,-0.47267 0.59807,-0.81993 0.395498,-0.35691 0.983921,-0.56913 0.59807,-0.21222 1.389066,-0.21222 0.347266,0 0.694533,0.0579 0.347266,0.0579 0.627008,0.14469 0.279743,0.0868 0.472669,0.19293 0.202572,0.0965 0.299035,0.17363 0.106109,0.0772 0.135048,0.13505 0.03859,0.0579 0.04823,0.13505 0.01929,0.0675 0.02894,0.17363 0.01929,0.10611 0.01929,0.26045 0,0.16399 -0.01929,0.28939 -0.0096,0.11575 -0.04823,0.19292 -0.02894,0.0772 -0.07717,0.11576 -0.04823,0.0289 -0.106109,0.0289 -0.08682,0 -0.250804,-0.10611 -0.163986,-0.10611 -0.424436,-0.22187 -0.26045,-0.1254 -0.617363,-0.23151 -0.347266,-0.10611 -0.800642,-0.10611 -0.405144,0 -0.713825,0.0965 -0.308681,0.0868 -0.511253,0.26045 -0.192926,0.16398 -0.299035,0.39549 -0.09646,0.23152 -0.09646,0.50161 0,0.37621 0.192925,0.63666 0.192926,0.2508 0.501607,0.44373 0.308682,0.19292 0.70418,0.34726 0.395497,0.15434 0.800642,0.31833 0.41479,0.16399 0.810288,0.36656 0.405144,0.20257 0.713825,0.49196 0.308681,0.28939 0.491961,0.69453 0.192926,0.40515 0.192926,0.96463 z"
         style="font-family:Calibri;-inkscape-font-specification:Calibri"
         id="path27107" />
      <path
         d="m 76.51014,170.3076 q 0,0.27974 -0.03859,0.44373 -0.03858,0.16398 -0.115756,0.24115 -0.07717,0.0772 -0.231511,0.1447 -0.15434,0.0675 -0.356912,0.10611 -0.192926,0.0482 -0.414791,0.0772 -0.221864,0.0289 -0.443729,0.0289 -0.67524,0 -1.157555,-0.17364 -0.482314,-0.18328 -0.790995,-0.54019 -0.308682,-0.36656 -0.453376,-0.9164 -0.135048,-0.55948 -0.135048,-1.31189 v -5.07395 H 71.15645 q -0.144695,0 -0.231511,-0.15434 -0.08682,-0.15434 -0.08682,-0.50161 0,-0.18328 0.01929,-0.30868 0.02894,-0.1254 0.06752,-0.20257 0.03859,-0.0868 0.09646,-0.11576 0.06753,-0.0386 0.144695,-0.0386 h 1.205786 v -2.06431 q 0,-0.0675 0.02894,-0.1254 0.03859,-0.0579 0.125402,-0.0965 0.09646,-0.0482 0.250803,-0.0675 0.154341,-0.0193 0.385852,-0.0193 0.241157,0 0.395498,0.0193 0.15434,0.0193 0.241157,0.0675 0.08682,0.0386 0.125401,0.0965 0.03859,0.0579 0.03859,0.1254 v 2.06431 h 2.228292 q 0.07717,0 0.135048,0.0386 0.05788,0.0289 0.09646,0.11576 0.04823,0.0772 0.06752,0.20257 0.01929,0.1254 0.01929,0.30868 0,0.34727 -0.08682,0.50161 -0.08682,0.15434 -0.231511,0.15434 H 73.96352 v 4.84244 q 0,0.8971 0.260449,1.36012 0.270097,0.45338 0.954983,0.45338 0.221865,0 0.395498,-0.0386 0.173633,-0.0482 0.308681,-0.0965 0.135048,-0.0482 0.231511,-0.0868 0.09646,-0.0482 0.173633,-0.0482 0.04823,0 0.08682,0.0289 0.04823,0.0193 0.06752,0.0868 0.02894,0.0675 0.04823,0.18328 0.01929,0.11575 0.01929,0.28939 z"
         style="font-family:Calibri;-inkscape-font-specification:Calibri"
         id="path27109" />
    </g>
    <g
       aria-label="駄"
       id="text1861"
       style="font-size:25.4px;line-height:1.25;font-family:HGPSoeiPresenceEB;-inkscape-font-specification:HGPSoeiPresenceEB;letter-spacing:0px;word-spacing:0px;stroke-width:0.264583"
       transform="matrix(3.183675,0,0,3.5580515,-104.08937,-150.99789)">
      <path
         d="m 59.895067,71.106766 q -0.396875,-2.083594 -1.190625,-3.671094 -1.686719,3.175 -4.167188,5.258594 L 53.24741,71.999734 q -0.496093,0.396875 -1.5875,0.396875 h -1.686718 q -0.198438,-1.091406 -1.686719,-1.5875 v -1.389062 h 2.579687 q 0.694532,0 0.79375,-0.79375 l 0.198438,-1.190625 -0.297656,0.198438 q -0.595313,-2.976563 -1.5875,-4.365625 l 0.595312,-0.396875 h -2.083593 v 0.496093 l -2.976563,0.396875 V 49.973172 l 2.976563,0.198438 v 0.297656 h 3.274218 l 1.488281,-0.992187 2.38125,1.885156 -0.992187,0.79375 h -2.678906 v 1.885156 l 1.091406,-0.79375 2.282031,1.785937 -0.892969,0.892969 h -2.480468 v 1.488281 l 1.091406,-0.694531 0.595312,0.496094 -0.396875,-1.091406 h 4.960938 l 0.09922,-2.877344 v -3.770312 l 3.075781,0.198437 v 4.365625 l -0.09922,2.083594 h 2.083594 l 1.686719,-1.190625 2.579687,2.083593 -0.892969,0.79375 h -5.159375 q 0.496094,2.38125 1.289844,4.365625 0.992188,2.480469 2.182813,4.365625 1.289843,2.083594 2.877343,3.770313 l -3.075781,2.678906 q -1.091406,-1.686719 -2.282031,-4.464844 -1.289844,-2.877343 -2.083594,-5.754687 -0.496094,1.785937 -0.892969,2.480469 1.785938,1.289843 2.976563,3.770312 z m -7.540625,-7.14375 0.09922,-1.091406 H 51.362254 Z M 49.27866,52.155985 h -0.793749 v 2.083593 h 0.793749 z m 0,3.770312 h -0.793749 v 1.785938 h 0.793749 z m 0,3.472656 h -0.793749 v 1.785938 h 0.793749 z m -2.182812,10.021094 q 0.198438,-3.472656 -0.198437,-5.258594 l 1.289843,-0.496093 q 0.992188,2.480468 1.190625,5.159375 z m 2.480469,-0.694531 Q 49.27866,66.145828 48.484911,63.863797 l 1.091406,-0.694531 q 1.190625,1.5875 1.885156,4.663281 z m -5.754688,0.396875 q 1.190625,-2.282031 1.488282,-5.060156 l 1.488281,0.396875 q 0.09922,2.182812 -0.694531,5.357812 z m 11.90625,-7.838281 -0.595312,4.7625 -0.595313,3.175 q 1.091406,-1.686719 1.488281,-2.678907 0.892969,-2.083593 1.389063,-4.365625 0.496094,-1.984375 0.79375,-4.365625 h -3.869531 l 0.992187,0.694532 -0.892969,0.892968 h -2.480468 v 1.785938 h 0.297656 l 1.190625,-1.091406 z"
         id="path11177" />
    </g>
  </g>
</svg>
